<svg width="225" height="45" viewBox="0 0 225 45" fill="none" xmlns="http://www.w3.org/2000/svg">
<path fill-rule="evenodd" clip-rule="evenodd" d="M0.00244576 0.636393C0.0714458 2.20739 2.75745 12.4784 3.74445 14.9454C5.40445 19.0934 9.20445 22.4364 16.8024 26.4284C20.7724 28.5154 25.1344 31.5444 26.4934 33.1604L28.9664 36.0984V31.4904C28.9664 25.1764 27.0674 21.1854 21.7284 16.2804C17.3464 12.2534 10.9664 8.24339 10.9664 9.51539C10.9664 9.85739 11.9014 11.4504 13.0444 13.0554C14.1884 14.6614 14.9584 16.4694 14.7574 17.0734C14.0694 19.1364 7.87845 12.7134 4.93545 6.88439C2.26645 1.59539 -0.0865542 -1.38361 0.00244576 0.636393ZM61.7414 1.68939C60.8904 2.65539 59.0304 5.76839 57.6084 8.60739C55.3644 13.0854 50.6074 17.9454 48.4674 17.9454C48.0874 17.9454 48.9584 15.9294 50.4024 13.4654C53.5914 8.02339 52.2524 8.17539 44.1524 14.1724C37.1104 19.3864 34.9744 23.0424 34.9704 29.8914L34.9664 35.3374L38.2734 32.1324C40.0924 30.3694 44.4694 27.4204 47.9984 25.5804C56.2294 21.2894 59.3634 17.3034 61.8454 7.96339C62.9394 3.84739 63.7114 0.357392 63.5614 0.206392C63.4104 0.0563925 62.5914 0.723393 61.7414 1.68939Z" fill="white"/>
<path d="M65.3477 20.2617C65.9727 19.2852 66.625 18.4258 67.3047 17.6836L69.8242 19.6641C69.4883 20.0781 69.1758 20.4844 68.8867 20.8828C68.8867 20.8828 68.5859 21.3086 67.9844 22.1602L65.3477 20.2617ZM68.4297 34.6875C68.4297 35.3594 68.4453 35.7969 68.4766 36H65.5V23.7539H68.4297V34.6875ZM74.8281 34.5C74.8281 35.1875 74.8594 35.6875 74.9219 36H71.9805V23.7539H74.8281V24.7969C75.8594 23.9453 76.9609 23.5195 78.1328 23.5195C79.4141 23.5195 80.4375 23.957 81.2031 24.832C81.9688 25.6992 82.3516 26.8438 82.3516 28.2656V32.9297C82.3516 34.25 82.3711 35.043 82.4102 35.3086C82.4492 35.5742 82.5 35.7461 82.5625 35.8242C82.6328 35.9023 82.6914 35.9727 82.7383 36.0352L82.7148 36.082C82.082 36.0273 81.6211 36 81.332 36H80.5117C80.2617 36 79.9258 36.0117 79.5039 36.0352V29.6484C79.5039 27.3594 78.8086 26.2148 77.418 26.2148C76.3867 26.2148 75.5234 26.7461 74.8281 27.8086V34.5ZM96.9766 32.7422C96.6875 33.125 96.543 33.4297 96.543 33.6562C96.543 33.875 96.5781 34.0469 96.6484 34.1719C96.7188 34.2891 96.8711 34.4023 97.1055 34.5117C97.6211 34.7539 98.4688 34.9688 99.6484 35.1562C100.828 35.3359 101.75 35.5625 102.414 35.8359C103.086 36.1094 103.629 36.4453 104.043 36.8438C104.816 37.6016 105.203 38.6758 105.203 40.0664C105.203 41.457 104.715 42.5234 103.738 43.2656C102.762 44.0156 101.312 44.3906 99.3906 44.3906C97.4531 44.3906 95.8906 43.9688 94.7031 43.125C93.5156 42.2812 92.9062 41.1602 92.875 39.7617C92.8281 38.1367 93.4648 36.9609 94.7852 36.2344C94.4258 35.9375 94.1836 35.5898 94.0586 35.1914C93.9414 34.7852 93.8828 34.3242 93.8828 33.8086C93.8828 32.9414 94.2617 32.207 95.0195 31.6055C94.1367 30.7695 93.6953 29.7305 93.6953 28.4883C93.6953 27.0977 94.1953 25.9336 95.1953 24.9961C96.25 24.0117 97.6172 23.5195 99.2969 23.5195C100.18 23.5195 101.008 23.6836 101.781 24.0117C102.797 23.582 103.543 23.207 104.02 22.8867C104.496 22.5586 104.801 22.3203 104.934 22.1719L105.004 22.1836C105.074 22.3711 105.156 22.6367 105.25 22.9805L105.461 23.8242C105.648 24.5195 105.762 24.9961 105.801 25.2539C105.457 25.6289 104.852 25.8945 103.984 26.0508C104.32 26.6992 104.488 27.3867 104.488 28.1133C104.488 28.8398 104.363 29.5 104.113 30.0938C103.863 30.6797 103.508 31.1953 103.047 31.6406C102.023 32.6016 100.719 33.082 99.1328 33.082C98.3594 33.082 97.6406 32.9688 96.9766 32.7422ZM96.6719 27.4688C96.5625 27.75 96.5078 28.0352 96.5078 28.3242C96.5078 28.6133 96.5664 28.8906 96.6836 29.1562C96.8086 29.4219 96.9883 29.6602 97.2227 29.8711C97.7461 30.3398 98.4297 30.5742 99.2734 30.5742C99.9141 30.5742 100.469 30.3594 100.938 29.9297C101.43 29.4609 101.676 28.8984 101.676 28.2422C101.676 27.5781 101.453 27.043 101.008 26.6367C100.562 26.2305 99.9492 26.0273 99.168 26.0273C97.8789 26.0273 97.0469 26.5078 96.6719 27.4688ZM99.543 41.9062C101.465 41.9062 102.426 41.2344 102.426 39.8906C102.426 39.25 102.113 38.7344 101.488 38.3438C100.785 37.8984 99.5781 37.5508 97.8672 37.3008L97.2578 37.1953C96.7422 37.4688 96.3633 37.8203 96.1211 38.25C95.8789 38.6797 95.7578 39.0859 95.7578 39.4688C95.7656 39.8594 95.8594 40.1953 96.0391 40.4766C96.2188 40.7578 96.4688 41.0039 96.7891 41.2148C97.5 41.6758 98.418 41.9062 99.543 41.9062ZM106.855 29.9414C106.855 29.082 107 28.2617 107.289 27.4805C107.586 26.6914 108.008 26.0039 108.555 25.418C109.75 24.1523 111.301 23.5195 113.207 23.5195C115.105 23.5195 116.613 24.1172 117.73 25.3125C118.801 26.4531 119.336 27.9336 119.336 29.7539C119.336 31.5742 118.785 33.082 117.684 34.2773C116.52 35.543 114.977 36.1758 113.055 36.1758C111.07 36.1758 109.516 35.5547 108.391 34.3125C107.367 33.1797 106.855 31.7227 106.855 29.9414ZM109.703 29.8711C109.703 30.3633 109.785 30.8398 109.949 31.3008C110.113 31.7617 110.348 32.1562 110.652 32.4844C111.301 33.1953 112.152 33.5508 113.207 33.5508C114.184 33.5508 114.953 33.2031 115.516 32.5078C116.062 31.8359 116.336 30.9609 116.336 29.8828C116.336 28.7891 116.055 27.9062 115.492 27.2344C114.891 26.5156 114.066 26.1562 113.02 26.1562C111.957 26.1562 111.125 26.5391 110.523 27.3047C109.977 28.0078 109.703 28.8633 109.703 29.8711ZM120.895 29.9414C120.895 29.082 121.039 28.2617 121.328 27.4805C121.625 26.6914 122.047 26.0039 122.594 25.418C123.789 24.1523 125.34 23.5195 127.246 23.5195C129.145 23.5195 130.652 24.1172 131.77 25.3125C132.84 26.4531 133.375 27.9336 133.375 29.7539C133.375 31.5742 132.824 33.082 131.723 34.2773C130.559 35.543 129.016 36.1758 127.094 36.1758C125.109 36.1758 123.555 35.5547 122.43 34.3125C121.406 33.1797 120.895 31.7227 120.895 29.9414ZM123.742 29.8711C123.742 30.3633 123.824 30.8398 123.988 31.3008C124.152 31.7617 124.387 32.1562 124.691 32.4844C125.34 33.1953 126.191 33.5508 127.246 33.5508C128.223 33.5508 128.992 33.2031 129.555 32.5078C130.102 31.8359 130.375 30.9609 130.375 29.8828C130.375 28.7891 130.094 27.9062 129.531 27.2344C128.93 26.5156 128.105 26.1562 127.059 26.1562C125.996 26.1562 125.164 26.5391 124.562 27.3047C124.016 28.0078 123.742 28.8633 123.742 29.8711ZM144.227 35.3438C143.234 35.8984 142.242 36.1758 141.25 36.1758C140.258 36.1758 139.391 36.0195 138.648 35.707C137.906 35.3945 137.273 34.9648 136.75 34.418C135.672 33.293 135.133 31.832 135.133 30.0352C135.133 28.1758 135.758 26.6289 137.008 25.3945C138.266 24.1445 139.875 23.5195 141.836 23.5195C142.438 23.5195 143.027 23.5977 143.605 23.7539V18.5391H146.477V31.0664C146.477 32.1055 146.523 32.7852 146.617 33.1055C146.719 33.4258 146.828 33.6602 146.945 33.8086C147.07 33.957 147.227 34.0977 147.414 34.2305L145.211 36.1758C144.805 35.957 144.477 35.6797 144.227 35.3438ZM141.801 33.4805C142.457 33.4805 143.059 33.3555 143.605 33.1055V26.6133C143.059 26.3867 142.465 26.2734 141.824 26.2734C141.184 26.2734 140.633 26.3594 140.172 26.5312C139.719 26.7031 139.328 26.9414 139 27.2461C138.312 27.8867 137.969 28.7188 137.969 29.7422C137.969 30.8594 138.281 31.75 138.906 32.4141C139.578 33.125 140.543 33.4805 141.801 33.4805ZM161.008 34.6875C161.008 35.3594 161.023 35.7969 161.055 36H158.137V19.2422H161.008V24.668C162.016 23.9023 163.055 23.5195 164.125 23.5195C165.438 23.5195 166.492 23.9531 167.289 24.8203C168.07 25.6875 168.461 26.8359 168.461 28.2656V32.9297C168.461 34.25 168.48 35.043 168.52 35.3086C168.559 35.5742 168.609 35.7461 168.672 35.8242C168.742 35.9023 168.801 35.9727 168.848 36.0352L168.824 36.082C168.191 36.0273 167.73 36 167.441 36H166.609C166.352 36 166.012 36.0117 165.59 36.0352V29.25C165.59 28.1719 165.352 27.375 164.875 26.8594C164.516 26.4688 164.027 26.2734 163.41 26.2734C162.496 26.2734 161.695 26.8008 161.008 27.8555V34.6875ZM179.91 35.2734C178.801 35.875 177.797 36.1758 176.898 36.1758C176 36.1758 175.23 36.0938 174.59 35.9297C173.949 35.7578 173.406 35.5078 172.961 35.1797C172.055 34.5156 171.602 33.5547 171.602 32.2969C171.602 31.1719 172.156 30.2344 173.266 29.4844C174.469 28.6719 176.102 28.2656 178.164 28.2656L178.633 28.2773C178.727 28.2852 178.832 28.293 178.949 28.3008C179.066 28.3008 179.172 28.3086 179.266 28.3242C179.203 27.0742 178.664 26.3438 177.648 26.1328C177.312 26.0625 176.953 26.0273 176.57 26.0273C176.195 26.0273 175.824 26.0625 175.457 26.1328C175.098 26.1953 174.746 26.2812 174.402 26.3906C173.645 26.6328 173.102 26.9102 172.773 27.2227L172.738 27.1992L172.387 24.6094C173.77 23.8828 175.281 23.5195 176.922 23.5195C179.469 23.5195 181.098 24.4375 181.809 26.2734C182.035 26.8594 182.148 27.5195 182.148 28.2539V32.4961C182.148 33.4023 182.469 34.0195 183.109 34.3477L180.988 36.293C180.543 36.0586 180.184 35.7188 179.91 35.2734ZM179.277 30.4336C179.066 30.3945 178.848 30.375 178.621 30.375H178.152C176.426 30.375 175.328 30.7578 174.859 31.5234C174.719 31.75 174.648 31.9883 174.648 32.2383C174.648 32.4883 174.691 32.7109 174.777 32.9062C174.871 33.0938 175.023 33.25 175.234 33.375C175.641 33.6094 176.242 33.7266 177.039 33.7266C177.844 33.7266 178.594 33.5352 179.289 33.1523C179.281 33.0664 179.277 32.9766 179.277 32.8828V30.4336ZM188.898 34.5C188.898 35.1875 188.93 35.6875 188.992 36H186.051V23.7539H188.898V24.7969C189.93 23.9453 191.031 23.5195 192.203 23.5195C193.484 23.5195 194.508 23.957 195.273 24.832C196.039 25.6992 196.422 26.8438 196.422 28.2656V32.9297C196.422 34.25 196.441 35.043 196.48 35.3086C196.52 35.5742 196.57 35.7461 196.633 35.8242C196.703 35.9023 196.762 35.9727 196.809 36.0352L196.785 36.082C196.152 36.0273 195.691 36 195.402 36H194.582C194.332 36 193.996 36.0117 193.574 36.0352V29.6484C193.574 27.3594 192.879 26.2148 191.488 26.2148C190.457 26.2148 189.594 26.7461 188.898 27.8086V34.5ZM208.258 35.3438C207.266 35.8984 206.273 36.1758 205.281 36.1758C204.289 36.1758 203.422 36.0195 202.68 35.707C201.938 35.3945 201.305 34.9648 200.781 34.418C199.703 33.293 199.164 31.832 199.164 30.0352C199.164 28.1758 199.789 26.6289 201.039 25.3945C202.297 24.1445 203.906 23.5195 205.867 23.5195C206.469 23.5195 207.059 23.5977 207.637 23.7539V18.5391H210.508V31.0664C210.508 32.1055 210.555 32.7852 210.648 33.1055C210.75 33.4258 210.859 33.6602 210.977 33.8086C211.102 33.957 211.258 34.0977 211.445 34.2305L209.242 36.1758C208.836 35.957 208.508 35.6797 208.258 35.3438ZM205.832 33.4805C206.488 33.4805 207.09 33.3555 207.637 33.1055V26.6133C207.09 26.3867 206.496 26.2734 205.855 26.2734C205.215 26.2734 204.664 26.3594 204.203 26.5312C203.75 26.7031 203.359 26.9414 203.031 27.2461C202.344 27.8867 202 28.7188 202 29.7422C202 30.8594 202.312 31.75 202.938 32.4141C203.609 33.125 204.574 33.4805 205.832 33.4805ZM218.02 36.1758C215.816 36.1758 214.156 35.7734 213.039 34.9688C213.055 34.7344 213.078 34.4688 213.109 34.1719L213.215 33.3281C213.277 32.7734 213.316 32.4297 213.332 32.2969C213.348 32.1562 213.359 32.082 213.367 32.0742C213.375 32.0586 213.438 32.1211 213.555 32.2617C213.672 32.3945 213.895 32.5586 214.223 32.7539C214.551 32.9492 214.93 33.1211 215.359 33.2695C216.289 33.5898 217.258 33.75 218.266 33.75C219.617 33.75 220.293 33.3008 220.293 32.4023C220.293 32.1133 220.164 31.8984 219.906 31.7578C219.445 31.5234 218.766 31.3477 217.867 31.2305C216.977 31.1055 216.246 30.9258 215.676 30.6914C215.105 30.457 214.641 30.1758 214.281 29.8477C213.617 29.2305 213.285 28.4219 213.285 27.4219C213.285 26.2031 213.754 25.2461 214.691 24.5508C215.621 23.8633 216.906 23.5195 218.547 23.5195C220.172 23.5195 221.559 23.9805 222.707 24.9023C222.652 25.1055 222.594 25.3008 222.531 25.4883C222.352 26.0039 222.219 26.375 222.133 26.6016L221.863 27.293C221.848 27.3555 221.836 27.3867 221.828 27.3867C221.812 27.3867 221.75 27.3047 221.641 27.1406C221.148 26.5703 220.383 26.1953 219.344 26.0156C219.023 25.9531 218.695 25.9219 218.359 25.9219C216.938 25.9219 216.227 26.3516 216.227 27.2109C216.227 27.5078 216.375 27.7344 216.672 27.8906C217.227 28.1875 217.984 28.4062 218.945 28.5469C219.914 28.6875 220.648 28.8789 221.148 29.1211C221.648 29.3555 222.051 29.6406 222.355 29.9766C222.918 30.5859 223.199 31.3945 223.199 32.4023C223.199 33.5039 222.758 34.3984 221.875 35.0859C220.953 35.8125 219.668 36.1758 218.02 36.1758Z" fill="white"/>
</svg>
