<svg width="64" height="37" viewBox="0 0 64 37" fill="none" xmlns="http://www.w3.org/2000/svg">
<path fill-rule="evenodd" clip-rule="evenodd" d="M0.00244576 0.636393C0.0714458 2.20739 2.75745 12.4784 3.74445 14.9454C5.40445 19.0934 9.20445 22.4364 16.8024 26.4284C20.7724 28.5154 25.1344 31.5444 26.4934 33.1604L28.9664 36.0984V31.4904C28.9664 25.1764 27.0674 21.1854 21.7284 16.2804C17.3464 12.2534 10.9664 8.24339 10.9664 9.51539C10.9664 9.85739 11.9014 11.4504 13.0444 13.0554C14.1884 14.6614 14.9584 16.4694 14.7574 17.0734C14.0694 19.1364 7.87845 12.7134 4.93545 6.88439C2.26645 1.59539 -0.0865542 -1.38361 0.00244576 0.636393ZM61.7414 1.68939C60.8904 2.65539 59.0304 5.76839 57.6084 8.60739C55.3644 13.0854 50.6074 17.9454 48.4674 17.9454C48.0874 17.9454 48.9584 15.9294 50.4024 13.4654C53.5914 8.02339 52.2524 8.17539 44.1524 14.1724C37.1104 19.3864 34.9744 23.0424 34.9704 29.8914L34.9664 35.3374L38.2734 32.1324C40.0924 30.3694 44.4694 27.4204 47.9984 25.5804C56.2294 21.2894 59.3634 17.3034 61.8454 7.96339C62.9394 3.84739 63.7114 0.357392 63.5614 0.206392C63.4104 0.0563925 62.5914 0.723393 61.7414 1.68939Z" fill="white"/>
</svg>
