<svg width="194" height="41" viewBox="0 0 194 41" fill="none" xmlns="http://www.w3.org/2000/svg">
<path fill-rule="evenodd" clip-rule="evenodd" d="M0.00244576 0.636393C0.0714458 2.20739 2.75745 12.4784 3.74445 14.9454C5.40445 19.0934 9.20445 22.4364 16.8024 26.4284C20.7724 28.5154 25.1344 31.5444 26.4934 33.1604L28.9664 36.0984V31.4904C28.9664 25.1764 27.0674 21.1854 21.7284 16.2804C17.3464 12.2534 10.9664 8.24339 10.9664 9.51539C10.9664 9.85739 11.9014 11.4504 13.0444 13.0554C14.1884 14.6614 14.9584 16.4694 14.7574 17.0734C14.0694 19.1364 7.87845 12.7134 4.93545 6.88439C2.26645 1.59539 -0.0865542 -1.38361 0.00244576 0.636393ZM61.7414 1.68939C60.8904 2.65539 59.0304 5.76839 57.6084 8.60739C55.3644 13.0854 50.6074 17.9454 48.4674 17.9454C48.0874 17.9454 48.9584 15.9294 50.4024 13.4654C53.5914 8.02339 52.2524 8.17539 44.1524 14.1724C37.1104 19.3864 34.9744 23.0424 34.9704 29.8914L34.9664 35.3374L38.2734 32.1324C40.0924 30.3694 44.4694 27.4204 47.9984 25.5804C56.2294 21.2894 59.3634 17.3034 61.8454 7.96339C62.9394 3.84739 63.7114 0.357392 63.5614 0.206392C63.4104 0.0563925 62.5914 0.723393 61.7414 1.68939Z" fill="#2691EC"/>
<path d="M66.9844 29V12.5938H67.9219V29H66.9844ZM69.7969 29V20.1641C69.7969 19.4297 70.1328 18.7188 70.8047 18.0312C71.5859 17.2344 72.5469 16.8359 73.6875 16.8359V17.7734C72.7812 17.7734 72.0078 18.125 71.3672 18.8281C70.9453 19.2969 70.7344 19.7812 70.7344 20.2812V29H69.7969ZM74.6719 17.7734V16.8359C76.0781 16.8359 77.1719 17.4062 77.9531 18.5469C78.3594 19.125 78.5625 19.6641 78.5625 20.1641V29H77.625V20.2812C77.625 19.7656 77.3594 19.2344 76.8281 18.6875C76.2188 18.0938 75.5 17.7891 74.6719 17.7734ZM86.0156 24.5V16.7188C86.0156 15.8594 86.3672 15 87.0703 14.1406C88.0234 13.0312 89.2344 12.4766 90.7031 12.4766V13.3672C89.5781 13.3672 88.625 13.8203 87.8438 14.7266C87.25 15.4297 86.9531 16.2188 86.9531 17.0938V24.5C86.9531 25.9062 87.6406 26.9766 89.0156 27.7109C89.6562 28.0547 90.2188 28.2266 90.7031 28.2266V29.1172C89.7188 29.1172 88.7656 28.7812 87.8438 28.1094C86.6406 27.2188 86.0312 26.0156 86.0156 24.5ZM91.7578 29.1172V28.2266C92.4609 28.2266 93.1953 27.875 93.9609 27.1719C94.8203 26.375 95.2578 25.5 95.2734 24.5469V21.6172H91.7578V20.7266H96.2109V24.875C96.2109 25.8281 95.7266 26.7734 94.7578 27.7109C93.7734 28.6328 92.7734 29.1016 91.7578 29.1172ZM91.7578 13.3672V12.4766C92.9766 12.4609 94.0547 12.9688 94.9922 14C95.8047 14.8906 96.2109 15.8594 96.2109 16.9062L95.2969 17.2344C95.2969 17.0625 95.2891 16.9375 95.2734 16.8594C95.1641 15.4531 94.4688 14.4219 93.1875 13.7656C92.6562 13.5 92.1797 13.3672 91.7578 13.3672ZM98.0391 25.6953V20.1875C98.0391 19.4688 98.3672 18.7734 99.0234 18.1016C99.7891 17.3047 100.742 16.9062 101.883 16.9062V17.7969C100.789 17.7969 99.9531 18.2656 99.375 19.2031C99.1094 19.6406 98.9766 20.0703 98.9766 20.4922V25.3906C98.9766 26.0156 99.2812 26.6328 99.8906 27.2422C100.484 27.8359 101.148 28.1328 101.883 28.1328V29.0234C100.445 29.0234 99.3438 28.4453 98.5781 27.2891C98.2188 26.7266 98.0391 26.1953 98.0391 25.6953ZM102.844 29.0234V28.1328C103.844 28.1328 104.633 27.6719 105.211 26.75C105.492 26.2969 105.633 25.8594 105.633 25.4375V20.4922C105.633 19.8047 105.336 19.1641 104.742 18.5703C104.195 18.0547 103.562 17.7969 102.844 17.7969V16.9062C104.234 16.9062 105.297 17.4766 106.031 18.6172C106.391 19.1641 106.57 19.6875 106.57 20.1875V25.6953C106.57 26.4297 106.25 27.1406 105.609 27.8281C104.875 28.6094 103.953 29.0078 102.844 29.0234ZM108.352 25.6953V20.1875C108.352 19.4688 108.68 18.7734 109.336 18.1016C110.102 17.3047 111.055 16.9062 112.195 16.9062V17.7969C111.102 17.7969 110.266 18.2656 109.688 19.2031C109.422 19.6406 109.289 20.0703 109.289 20.4922V25.3906C109.289 26.0156 109.594 26.6328 110.203 27.2422C110.797 27.8359 111.461 28.1328 112.195 28.1328V29.0234C110.758 29.0234 109.656 28.4453 108.891 27.2891C108.531 26.7266 108.352 26.1953 108.352 25.6953ZM113.156 29.0234V28.1328C114.156 28.1328 114.945 27.6719 115.523 26.75C115.805 26.2969 115.945 25.8594 115.945 25.4375V20.4922C115.945 19.8047 115.648 19.1641 115.055 18.5703C114.508 18.0547 113.875 17.7969 113.156 17.7969V16.9062C114.547 16.9062 115.609 17.4766 116.344 18.6172C116.703 19.1641 116.883 19.6875 116.883 20.1875V25.6953C116.883 26.4297 116.562 27.1406 115.922 27.8281C115.188 28.6094 114.266 29.0078 113.156 29.0234ZM118.477 25.6953V20.1641C118.477 19.2422 118.906 18.4375 119.766 17.75C120.484 17.1875 121.258 16.9062 122.086 16.9062H124.875V17.7969H122.109C121.328 17.7969 120.641 18.1328 120.047 18.8047C119.625 19.2734 119.414 19.7578 119.414 20.2578V25.6484C119.414 26.4141 119.82 27.0703 120.633 27.6172C121.148 27.9453 121.641 28.1094 122.109 28.1094H124.875V29H122.156C120.797 29 119.75 28.4375 119.016 27.3125C118.656 26.75 118.477 26.2109 118.477 25.6953ZM125.93 29V12.6172H126.867V29H125.93ZM134.367 29V12.5938H135.305V20.3047H138.445V21.1953H135.305V29H134.367ZM139.523 21.1953V20.3047H142.664V12.5938H143.602V29H142.664V21.1953H139.523ZM145.477 26.1641V25.0859C145.492 24.0703 145.875 23.3672 146.625 22.9766C146.906 22.8359 148.008 22.5391 149.93 22.0859C151.898 21.6328 152.891 21.2266 152.906 20.8672V20.4922C152.906 19.4141 152.438 18.6016 151.5 18.0547C151.062 17.8047 150.625 17.6797 150.188 17.6797V16.8359C151.641 16.8359 152.703 17.4375 153.375 18.6406C153.703 19.2344 153.867 19.8672 153.867 20.5391V27.2656C153.93 27.75 154.133 28.0156 154.477 28.0625V28.9766C153.852 28.9766 153.367 28.7188 153.023 28.2031C152.992 28.1562 152.961 28.1172 152.93 28.0859C152.414 28.6016 151.602 28.8984 150.492 28.9766C150.383 28.9766 150.281 28.9766 150.188 28.9766V28.0859C152 28.0547 152.914 27.1953 152.93 25.5078V22.1562C152.492 22.3906 151.328 22.7109 149.438 23.1172C147.906 23.4609 146.992 23.7812 146.695 24.0781C146.523 24.2656 146.438 24.5703 146.438 24.9922V25.9062C146.453 26.9531 147.008 27.6328 148.102 27.9453C148.43 28.0391 148.773 28.0859 149.133 28.0859V28.9766C147.758 28.9766 146.719 28.5234 146.016 27.6172C145.656 27.1484 145.477 26.6641 145.477 26.1641ZM145.641 19.8828C145.625 18.8984 146.094 18.0938 147.047 17.4688C147.703 17.0469 148.398 16.8359 149.133 16.8359V17.7266C148.258 17.7266 147.555 18.0703 147.023 18.7578C146.68 19.1953 146.508 19.6797 146.508 20.2109L145.641 19.8828ZM156.305 29V20.1641C156.305 19.4297 156.641 18.7188 157.312 18.0312C158.094 17.2344 159.055 16.8359 160.195 16.8359V17.7734C159.289 17.7734 158.516 18.125 157.875 18.8281C157.453 19.2969 157.242 19.7812 157.242 20.2812V29H156.305ZM161.18 17.7734V16.8359C162.586 16.8359 163.68 17.4062 164.461 18.5469C164.867 19.125 165.07 19.6641 165.07 20.1641V29H164.133V20.2812C164.133 19.7656 163.867 19.2344 163.336 18.6875C162.727 18.0938 162.008 17.7891 161.18 17.7734ZM166.664 25.6953V20.1641C166.664 19.2422 167.094 18.4375 167.953 17.75C168.672 17.1875 169.445 16.9062 170.273 16.9062H173.062V17.7969H170.297C169.516 17.7969 168.828 18.1328 168.234 18.8047C167.812 19.2734 167.602 19.7578 167.602 20.2578V25.6484C167.602 26.4141 168.008 27.0703 168.82 27.6172C169.336 27.9453 169.828 28.1094 170.297 28.1094H173.062V29H170.344C168.984 29 167.938 28.4375 167.203 27.3125C166.844 26.75 166.664 26.2109 166.664 25.6953ZM174.117 29V12.6172H175.055V29H174.117ZM176.461 25.8125L177.375 25.6484C177.375 26.5078 177.82 27.2109 178.711 27.7578C179.242 28.0703 179.758 28.2266 180.258 28.2266V29.1172C178.961 29.1172 177.922 28.625 177.141 27.6406C176.688 27.0469 176.461 26.4375 176.461 25.8125ZM176.555 20.4453C176.555 19.0234 177.18 17.9922 178.43 17.3516C179.008 17.0391 179.602 16.8828 180.211 16.8828V17.7734C179.508 17.7734 178.859 18.0703 178.266 18.6641C177.75 19.1953 177.492 19.7891 177.492 20.4453C177.492 21.0234 177.891 21.4688 178.688 21.7812C178.953 21.875 180.039 22.1484 181.945 22.6016C182.195 22.6641 182.422 22.7188 182.625 22.7656C184.359 23.2344 185.234 24.1172 185.25 25.4141C185.25 26.7734 184.68 27.7969 183.539 28.4844C182.852 28.9062 182.078 29.1172 181.219 29.1172V28.25C182.094 28.25 182.859 27.9375 183.516 27.3125C184.047 26.7656 184.312 26.1328 184.312 25.4141C184.312 24.6797 183.672 24.1094 182.391 23.7031C182.188 23.6406 181.117 23.3828 179.18 22.9297C179.07 22.8984 178.969 22.875 178.875 22.8594C177.344 22.4844 176.57 21.6797 176.555 20.4453ZM181.195 17.7969V16.8828C182.492 16.8828 183.531 17.3672 184.312 18.3359C184.797 18.9453 185.039 19.5781 185.039 20.2344L184.125 20.375C184.125 19.4219 183.602 18.6797 182.555 18.1484C182.055 17.9141 181.602 17.7969 181.195 17.7969Z" fill="#2691EC"/>
</svg>
